<svg width="190" height="50" viewBox="0 0 190 50" xmlns="http://www.w3.org/2000/svg">
  <g fill="none" fill-rule="evenodd">
    <rect fill="#51C445" width="190" height="50" rx="8"/>
    <path
      d="M31.716 27.502c-.98 0-1.942-.153-2.853-.454-.447-.153-.995-.013-1.268.267l-1.799 1.358c-2.086-1.113-3.372-2.398-4.47-4.469l1.318-1.752c.342-.342.465-.842.318-1.31a9.103 9.103 0 0 1-.456-2.858c0-.708-.576-1.284-1.284-1.284h-2.938c-.708 0-1.284.576-1.284 1.284C17 26.398 23.602 33 31.716 33c.708 0 1.284-.576 1.284-1.284v-2.93c0-.708-.576-1.284-1.284-1.284"
      fill="#FFF"/>
    <text font-family="AppleSDGothicNeo-Bold, Apple SD Gothic Neo" font-size="16" font-weight="bold" fill="#FFF">
      <tspan x="40" y="29">대표번호 1600-3713</tspan>
    </text>
  </g>
</svg>
