<svg xmlns="http://www.w3.org/2000/svg" width="22" height="22" viewBox="0 0 22 22">
    <g fill="none" fill-rule="evenodd">
        <g fill="#595DE4">
            <g>
                <path d="M7.568 12L8 13.152 8.432 12zM13.568 12L14.001 13.152 14.432 12z" transform="translate(-106 -6901) translate(106 6901)"/>
                <path d="M18 12h-1.432l-1.631 4.351c-.147.39-.52.649-.937.649-.417 0-.79-.259-.937-.649L11.432 12h-.864l-1.631 4.351c-.147.39-.52.649-.937.649-.417 0-.79-.259-.937-.649L5.432 12H4c-.552 0-1-.448-1-1s.448-1 1-1h.682l-.619-1.649c-.193-.517.069-1.093.586-1.288.518-.192 1.094.069 1.288.586L6.818 10h2.364l.881-2.351c.147-.39.52-.65.937-.65.417 0 .79.26.937.65L12.818 10h2.364l.881-2.351c.195-.517.771-.778 1.288-.586.517.195.779.771.586 1.288L17.318 10H18c.552 0 1 .448 1 1s-.448 1-1 1M11 0C4.925 0 0 4.925 0 11s4.925 11 11 11 11-4.925 11-11S17.075 0 11 0" transform="translate(-106 -6901) translate(106 6901)"/>
            </g>
        </g>
    </g>
</svg>
