<svg xmlns:xlink="http://www.w3.org/1999/xlink" width="50" height="50" viewBox="0 0 50 50"
     xmlns="http://www.w3.org/2000/svg">
    <defs>
        <path
          d="M1.25.026C.21.026.214 1.762 1.253 1.76h1.773s.01 4.834.001 5.969c.003.826 1.845.821 1.842-.006l.008-5.961h1.764c1.102 0 1.103-1.736 0-1.737H1.25"
          id="a"/>
        <path
          d="M3.163.557c-.436.96-2.011 5.497-2.535 6.7-.377.87 1.253 1.579 1.631.71l.355-1.241h3.244s-.112.051.319 1.188c.348.92 2.033.281 1.685-.638C7.362 5.96 5.64 1.228 5.327.557 5.18.247 4.66.024 4.157.024c-.416 0-.821.153-.994.533zM4.27 2.005l.986 3.09H3.2l1.07-3.09z"
          id="c"/>
        <path
          d="M.669.84c.004 1.543.01 6.51.01 6.51s-.143.99.704.99c.846 0 2.725-.01 3.558-.01.833 0 .83-1.773-.004-1.773-.833 0-2.353-.008-2.353-.008s.007-4.597.003-5.713c0-.54-.478-.81-.957-.81-.48 0-.962.272-.961.815"
          id="e"/>
        <path
          d="M.528.595c.019.676-.021 6.79-.021 7.243 0 .715 1.821.714 1.82-.001V5.432l.535-.429 2.336 3.188c.472.624 1.959-.502 1.486-1.125l-2.48-3.268s1.684-1.822 2.348-2.482C6.94.931 5.74-.277 5.352.108 4.977.48 2.338 3.122 2.338 3.122s.024-1.658 0-2.576C2.328.198 1.9.03 1.463.03.996.03.518.223.528.595"
          id="g"/>
    </defs>
    <g fill="none" fill-rule="evenodd">
        <rect fill="#FFE400" width="50" height="50" rx="8"/>
        <path
          d="M24.743 10.601c-9.393 0-17.007 6.02-17.007 13.445 0 4.834 3.226 9.07 8.068 11.441-.355 1.327-1.288 4.81-1.474 5.555-.231.925.338.914.712.664.292-.194 4.66-3.164 6.544-4.446 1.024.152 2.079.232 3.157.232 9.393 0 17.008-6.02 17.008-13.446 0-7.425-7.615-13.445-17.008-13.445"
          fill="#3F1D1D"/>
        <g transform="translate(11.719 21.094)">
            <mask id="b" fill="#fff">
                <use xlink:href="#a"/>
            </mask>
            <path
              d="M1.25.026C.21.026.214 1.762 1.253 1.76h1.773s.01 4.834.001 5.969c.003.826 1.845.821 1.842-.006l.008-5.961h1.764c1.102 0 1.103-1.736 0-1.737H1.25"
              fill="#FFE400" mask="url(#b)"/>
        </g>
        <g transform="translate(17.188 21.094)">
            <mask id="d" fill="#fff">
                <use xlink:href="#c"/>
            </mask>
            <path
              d="M3.163.557c-.436.96-2.011 5.497-2.535 6.7-.377.87 1.253 1.579 1.631.71l.355-1.241h3.244s-.112.051.319 1.188c.348.92 2.033.281 1.685-.638C7.362 5.96 5.64 1.228 5.327.557 5.18.247 4.66.024 4.157.024c-.416 0-.821.153-.994.533zM4.27 2.005l.986 3.09H3.2l1.07-3.09z"
              fill="#FFE400" mask="url(#d)"/>
        </g>
        <g transform="translate(25 21.094)">
            <mask id="f" fill="#fff">
                <use xlink:href="#e"/>
            </mask>
            <path
              d="M.669.84c.004 1.543.01 6.51.01 6.51s-.143.99.704.99c.846 0 2.725-.01 3.558-.01.833 0 .83-1.773-.004-1.773-.833 0-2.353-.008-2.353-.008s.007-4.597.003-5.713c0-.54-.478-.81-.957-.81-.48 0-.962.272-.961.815"
              fill="#FFE400" mask="url(#f)"/>
        </g>
        <g transform="translate(30.469 21.094)">
            <mask id="h" fill="#fff">
                <use xlink:href="#g"/>
            </mask>
            <path
              d="M.528.595c.019.676-.021 6.79-.021 7.243 0 .715 1.821.714 1.82-.001V5.432l.535-.429 2.336 3.188c.472.624 1.959-.502 1.486-1.125l-2.48-3.268s1.684-1.822 2.348-2.482C6.94.931 5.74-.277 5.352.108 4.977.48 2.338 3.122 2.338 3.122s.024-1.658 0-2.576C2.328.198 1.9.03 1.463.03.996.03.518.223.528.595"
              fill="#FFE400" mask="url(#h)"/>
        </g>
    </g>
</svg>
