<svg xmlns="http://www.w3.org/2000/svg" width="94" height="28" viewBox="0 0 94 28">
    <g fill="none" fill-rule="evenodd">
        <path fill="#000"
              d="M30.8 17.5c-2.316 0-4.2-1.884-4.2-4.2 0-2.316 1.884-4.2 4.2-4.2 2.316 0 4.2 1.884 4.2 4.2 0 2.316-1.884 4.2-4.2 4.2m0-11.2c-3.86 0-7 3.14-7 7v11.2h2.8v-5.635c1.173.888 2.618 1.435 4.2 1.435 3.86 0 7-3.14 7-7s-3.14-7-7-7M20.725 6.3L16.8 14.935 12.875 6.3 9.8 6.3 15.264 18.318 12.453 24.5 15.527 24.5 23.8 6.3zM46.2 9.1c1.823 0 3.361 1.175 3.941 2.8h-7.882c.58-1.625 2.118-2.8 3.941-2.8m6.406 7h-3.298c-.77.853-1.872 1.4-3.108 1.4-1.823 0-3.361-1.175-3.941-2.8h10.798c.094-.452.143-.92.143-1.4 0-3.86-3.14-7-7-7s-7 3.14-7 7 3.14 7 7 7c2.863 0 5.324-1.732 6.406-4.2M5.6 14.7V9.1h2.8V6.3H5.6V3.5H2.8v2.8H0v2.8h2.8v5.6c0 3.088 2.512 5.6 5.6 5.6h1.4v-2.8H8.4c-1.544 0-2.8-1.256-2.8-2.8"/>
        <path fill="#4339FF"
              d="M81.55 3.5h5.25c.966 0 1.75-.784 1.75-1.75S87.766 0 86.8 0h-5.25c-.966 0-1.75.784-1.75 1.75s.784 1.75 1.75 1.75M89.25 14h-2.1c-.966 0-1.75.784-1.75 1.75s.784 1.75 1.75 1.75h2.1c.966 0 1.75-.784 1.75-1.75S90.216 14 89.25 14"/>
        <path fill="#4339FF"
              d="M92.05 7H75.939l.001-.001c-.96-.006-1.74-.786-1.74-1.749 0-.966.784-1.75 1.75-1.75h.7c.966 0 1.75-.784 1.75-1.75S77.616 0 76.65 0H74.2L63.956 10.244 59.866 6.3h-5.94l7.114 6.86L46.9 27.3h5.939l11.225-11.225L72.8 24.5H84c.966 0 1.75-.784 1.75-1.75S84.966 21 84 21h-9.45c-.966 0-1.75-.784-1.75-1.75s.784-1.75 1.75-1.75h6.3c.966 0 1.75-.784 1.75-1.75S81.816 14 80.85 14h-11.9c-.966 0-1.75-.784-1.75-1.75s.784-1.75 1.75-1.75h23.1c.966 0 1.75-.784 1.75-1.75S93.016 7 92.05 7"/>
    </g>
</svg>
